<?xml version="1.0" standalone="no"?>
<!DOCTYPE svg PUBLIC "-//W3C//DTD SVG 20010904//EN"
 "http://www.w3.org/TR/2001/REC-SVG-20010904/DTD/svg10.dtd">
<svg version="1.0" xmlns="http://www.w3.org/2000/svg"
 width="1280.000000pt" height="720.000000pt" viewBox="0 0 1280.000000 720.000000"
 preserveAspectRatio="xMidYMid meet">
<metadata>
Created by potrace 1.15, written by Peter Selinger 2001-2017
</metadata>
<g transform="translate(0.000000,720.000000) scale(0.100000,-0.100000)"
fill="#000000" stroke="none">
<path d="M0 3600 l0 -3600 4203 0 c3983 0 4201 1 4181 18 -17 13 -20 25 -17
54 3 21 9 35 14 32 6 -3 8 5 6 18 -2 12 -2 17 0 11 6 -17 4 -17 59 12 25 14
50 23 54 20 4 -3 10 5 14 18 7 27 -25 55 -69 59 -16 2 -30 8 -30 15 0 6 -3 14
-7 18 -4 4 -3 15 2 24 5 9 11 24 14 34 4 13 17 17 58 19 101 3 138 -12 138
-54 0 -18 9 -22 43 -19 9 1 17 -4 17 -13 0 -8 6 -17 13 -19 7 -3 4 -6 -7 -6
-16 -1 -17 -3 -5 -18 12 -15 12 -16 -2 -11 -18 7 -59 -17 -59 -34 0 -6 8 -20
17 -30 16 -18 16 -21 -1 -50 -10 -17 -22 -46 -26 -64 l-8 -34 2099 0 2099 0 0
1930 c0 1906 0 1931 -19 1920 -30 -16 -91 -13 -91 4 0 10 -16 17 -47 21 -27 3
-61 12 -76 20 -16 8 -39 15 -52 15 -13 0 -26 4 -29 9 -3 4 -16 6 -29 4 -14 -3
-38 2 -54 11 -35 17 -51 56 -25 57 10 0 12 3 6 5 -19 8 -66 -15 -58 -28 4 -7
4 -10 -1 -6 -4 4 -14 3 -22 -3 -14 -12 -17 -3 -14 34 3 22 -22 22 -54 1 -23
-15 -25 -15 -25 2 0 9 -8 26 -17 36 -15 17 -15 20 -3 29 8 5 20 7 26 5 18 -7
37 11 31 28 -4 9 -15 16 -26 16 -11 0 -23 4 -26 10 -3 5 -14 10 -23 10 -22 1
-53 65 -39 79 15 15 -42 74 -65 68 -9 -3 -19 2 -23 11 -5 14 -7 14 -15 2 -7
-10 -10 -11 -10 -2 0 6 -8 12 -18 12 -28 0 -32 10 -15 36 14 21 14 24 0 24
-10 0 -13 6 -10 20 3 12 -1 22 -10 26 -9 3 -13 12 -11 19 6 15 -23 14 -34 -1
-8 -10 -42 -11 -58 -1 -6 3 -10 17 -8 29 13 90 18 109 27 115 6 4 7 1 2 -7 -5
-8 -3 -11 5 -8 23 7 22 25 -2 32 -40 10 -61 7 -85 -16 l-23 -22 -17 24 c-9 13
-25 32 -35 42 -20 20 -24 48 -7 48 6 0 -1 14 -15 31 -26 31 -38 65 -14 41 17
-17 38 -15 38 4 0 8 -4 12 -10 9 -5 -3 -10 3 -10 14 0 12 -4 21 -8 21 -5 0 -7
13 -4 29 3 19 -1 30 -12 34 -11 4 -16 1 -16 -12 0 -13 -9 -20 -29 -23 -17 -2
-27 0 -24 5 3 5 -3 6 -15 3 -47 -15 -96 37 -77 81 5 10 9 30 9 44 1 15 7 33
14 41 15 18 -2 38 -32 38 -12 0 -34 7 -50 15 -15 8 -37 15 -47 15 -11 0 -19 4
-19 8 0 4 -14 16 -30 26 -17 9 -28 22 -25 27 4 5 -1 12 -9 15 -9 3 -14 10 -11
14 3 5 1 11 -5 15 -5 3 -10 15 -10 26 0 12 -10 23 -25 29 -14 5 -25 17 -25 28
0 26 -34 59 -69 67 -33 7 -64 35 -40 35 16 0 -41 49 -57 50 -7 0 -14 8 -17 18
-2 11 -14 22 -26 25 -18 4 -20 3 -11 -8 8 -10 7 -15 -2 -19 -10 -5 -10 -7 0
-12 28 -13 8 -20 -60 -19 -79 1 -100 8 -92 30 4 8 -1 18 -10 21 -9 3 -16 14
-16 23 -1 29 -27 53 -49 46 -12 -4 -21 -2 -21 4 0 6 5 11 10 11 6 0 10 7 10
15 0 8 -7 15 -15 15 -25 0 -76 42 -66 54 15 18 21 78 8 73 -7 -2 -21 -1 -32 3
-19 7 -20 4 -18 -34 2 -22 0 -35 -3 -28 -10 21 -50 15 -51 -9 -4 -54 -33 -30
-33 27 0 24 -4 44 -10 44 -14 0 -12 27 2 34 10 5 11 7 1 12 -7 3 -13 12 -13
20 0 8 -6 14 -12 14 -7 0 2 9 19 20 27 16 31 23 25 42 -5 13 -7 29 -6 36 1 6
2 17 3 23 0 6 7 9 14 6 7 -3 21 1 32 9 21 16 39 19 31 5 -3 -5 2 -15 11 -22
15 -12 16 -12 9 6 -5 11 -10 50 -11 88 -4 95 -22 164 -45 170 -14 3 -18 14
-17 43 1 21 -4 39 -11 42 -7 2 -12 10 -12 18 0 8 -4 14 -10 14 -5 0 -20 24
-34 53 -25 56 -26 127 -1 127 8 0 22 8 31 18 17 16 18 16 11 -2 -6 -16 -4 -17
19 -12 21 6 25 4 21 -8 -4 -10 -1 -16 8 -16 8 0 15 5 15 10 0 6 7 10 16 10 14
0 14 3 4 15 -9 10 -9 15 -1 15 17 0 13 25 -7 43 -20 18 -43 17 -66 -2 -20 -17
-21 2 -1 23 18 17 20 40 3 30 -7 -4 -8 -3 -4 4 4 7 14 12 21 12 12 0 12 5 3
25 -6 14 -19 25 -27 24 -31 -4 -70 12 -64 27 3 8 9 12 13 9 5 -3 6 4 3 15 -3
11 0 20 6 20 9 0 9 5 1 20 -6 11 -18 20 -28 20 -15 0 -15 -2 -2 -10 13 -8 13
-10 -1 -10 -9 0 -24 -9 -34 -20 -22 -25 -38 -16 -31 19 l5 26 -12 -27 c-6 -16
-16 -27 -21 -27 -6 1 -24 1 -40 0 -25 -1 -27 -3 -15 -18 13 -15 12 -15 -9 -4
-25 13 -53 4 -31 -10 11 -7 11 -9 1 -9 -8 0 -11 -7 -7 -19 3 -10 3 -26 -1 -35
-6 -15 -7 -15 -20 1 -13 17 -14 17 -7 -1 4 -13 3 -17 -5 -12 -7 4 -12 3 -12
-3 0 -5 4 -13 10 -16 10 -6 -3 -36 -33 -71 -17 -20 -16 -21 18 -37 19 -9 35
-21 35 -27 0 -5 6 -7 14 -4 20 8 28 -24 16 -62 -9 -28 -8 -41 9 -80 18 -39 18
-45 5 -40 -13 5 -15 1 -10 -19 7 -29 -13 -35 -34 -10 -7 8 -24 16 -39 16 -23
2 -24 2 -3 6 31 6 28 17 -13 39 -47 25 -45 44 3 44 l38 0 2 50 c2 59 -17 77
-58 55 -13 -7 -40 -11 -60 -8 -59 8 -62 10 -49 31 10 15 9 24 -3 41 -9 13 -19
18 -22 13 -3 -6 -28 -8 -55 -5 -28 2 -52 0 -55 -6 -4 -6 -16 -5 -32 4 -18 9
-34 11 -49 5 -13 -5 -26 -6 -30 -2 -4 4 -5 0 -3 -8 2 -11 -5 -14 -30 -12 -21
1 -31 -2 -27 -8 3 -5 2 -10 -4 -10 -6 0 -8 -6 -5 -14 3 -8 -5 -23 -17 -35
l-23 -21 33 0 c19 0 30 -4 26 -10 -3 -5 -17 -10 -29 -10 -27 0 -51 -24 -41
-40 3 -5 15 -10 26 -10 10 0 19 -3 19 -6 0 -10 -64 -59 -77 -59 -7 0 -18 -8
-26 -19 -17 -23 -63 -19 -59 6 1 9 -3 20 -9 24 -8 5 -9 3 -4 -7 7 -12 6 -12
-7 -1 -17 14 -30 62 -17 62 5 0 8 5 7 11 -2 6 16 18 38 26 27 9 44 22 47 35 5
19 7 19 21 5 9 -9 13 -24 10 -34 -5 -17 -5 -17 9 -1 8 10 17 15 20 11 10 -10
8 6 -3 27 -9 16 -8 18 7 13 15 -6 16 -5 3 9 -12 12 -18 13 -29 4 -25 -20 -5
83 21 105 l21 19 -34 -1 c-29 0 -31 -2 -14 -10 17 -8 16 -9 -7 -6 -15 2 -25 1
-23 -4 3 -4 -4 -10 -15 -14 -11 -4 -17 -11 -14 -17 4 -6 2 -8 -3 -5 -14 9 -65
-31 -57 -44 3 -5 11 -7 17 -3 7 3 3 -2 -7 -10 -24 -19 -56 -21 -56 -3 -1 7 -6
4 -15 -6 -14 -20 -10 -51 6 -41 5 3 9 0 9 -6 0 -6 5 -8 12 -4 7 4 8 3 4 -5
-11 -18 -75 -11 -68 8 3 8 1 12 -5 8 -6 -4 -16 0 -23 8 -7 9 -21 13 -31 10
-11 -4 -19 -2 -19 4 0 16 -46 13 -60 -4 -7 -8 -26 -15 -42 -15 -25 0 -28 2
-19 14 21 25 -9 31 -33 6 -11 -13 -14 -20 -6 -16 8 4 6 1 -4 -8 -24 -19 -42
-10 -24 12 7 9 -2 6 -21 -8 -18 -13 -36 -32 -39 -42 -4 -18 -13 -22 -44 -19
-10 1 -18 -3 -18 -8 0 -6 -7 -11 -15 -11 -8 0 -15 5 -15 11 0 5 4 8 9 5 11 -7
20 14 14 32 -7 18 -20 15 -26 -8 -8 -32 -33 -34 -62 -6 -23 23 -55 26 -55 5 0
-5 -9 -9 -19 -9 -11 0 -22 -9 -26 -19 -3 -11 -15 -23 -26 -26 -10 -4 -19 -12
-19 -19 0 -8 -10 -12 -25 -11 -14 2 -23 -1 -19 -7 3 -5 8 -7 11 -4 8 8 53 -50
53 -68 0 -9 -6 -16 -13 -16 -16 0 -47 -32 -47 -48 0 -6 7 -9 15 -6 8 4 22 1
29 -5 10 -8 16 -9 21 -1 13 21 45 -9 44 -43 0 -18 1 -41 3 -52 6 -37 -30 -30
-46 9 -11 25 -19 34 -30 30 -21 -8 -20 6 1 21 14 10 10 13 -30 19 -37 6 -51 4
-63 -8 -13 -14 -14 -20 -2 -46 7 -17 21 -30 30 -30 14 0 16 -6 12 -28 -4 -19
-1 -32 10 -41 12 -10 13 -17 6 -26 -8 -10 -6 -15 9 -20 29 -9 26 -20 -9 -35
-16 -7 -30 -17 -30 -23 0 -6 3 -7 7 -4 3 4 12 -2 20 -13 18 -26 33 -26 33 0 0
11 7 20 16 20 8 0 12 -4 9 -10 -3 -5 -1 -11 4 -11 6 -1 17 -2 24 -3 6 0 13
-11 15 -24 2 -13 20 -34 44 -49 22 -15 35 -29 29 -31 -9 -3 -7 -10 4 -22 13
-15 14 -23 5 -39 -8 -15 -8 -21 0 -21 6 0 9 -4 6 -9 -3 -5 1 -12 10 -15 10 -4
14 -12 10 -22 -4 -10 3 -23 16 -35 20 -16 20 -18 6 -19 -22 0 -23 -18 -3 -40
13 -14 12 -16 -12 -15 -14 0 -29 7 -31 15 -5 13 -3 13 11 1 10 -8 17 -9 17 -3
0 16 -16 23 -34 16 -21 -8 -20 -31 1 -42 14 -9 14 -10 -6 -17 -13 -4 -18 -11
-14 -18 4 -7 6 -22 5 -34 -2 -11 2 -24 7 -28 19 -11 12 -30 -16 -48 -23 -15
-24 -17 -6 -12 12 3 24 1 29 -7 4 -7 3 -9 -2 -5 -5 5 -14 -7 -21 -25 -12 -29
-13 -30 -8 -5 4 19 2 26 -5 22 -5 -3 -10 -13 -10 -21 0 -12 -13 -19 -23 -11
-2 1 -12 -5 -21 -13 -23 -18 -47 -22 -63 -9 -9 8 -19 4 -38 -15 -14 -14 -36
-29 -50 -32 -15 -4 -22 -11 -18 -20 3 -8 0 -14 -6 -14 -6 0 -11 7 -11 15 0 8
-4 15 -9 15 -5 0 -7 -8 -4 -19 2 -10 -3 -25 -12 -34 -9 -9 -13 -21 -10 -27 3
-5 2 -10 -4 -10 -14 0 -36 41 -33 60 2 12 0 11 -11 -2 -8 -10 -17 -15 -20 -12
-3 3 -3 -5 0 -18 4 -18 3 -20 -6 -8 -9 13 -11 13 -11 -2 0 -9 6 -18 13 -21 8
-3 6 -9 -8 -20 -10 -8 -25 -13 -31 -10 -7 2 -15 0 -19 -6 -3 -6 -11 -11 -16
-11 -6 0 -8 4 -5 9 4 5 -5 4 -18 -2 -15 -7 -29 -26 -36 -49 -6 -21 -22 -45
-35 -54 -14 -9 -21 -22 -18 -30 3 -8 1 -20 -4 -27 -6 -6 -7 -23 -4 -36 l6 -24
40 36 c43 39 50 43 60 27 4 -6 11 -8 16 -4 5 3 7 10 4 15 -4 5 -1 9 4 9 17 0
13 -28 -5 -38 -14 -8 -14 -10 0 -21 13 -11 16 -11 16 3 0 9 4 16 8 16 5 0 14
10 21 23 6 12 9 14 7 5 -6 -19 9 -25 19 -8 12 19 34 11 30 -11 -5 -25 -15 -38
-15 -20 0 9 -3 9 -13 -1 -8 -6 -11 -22 -9 -35 4 -21 2 -23 -20 -14 -26 10 -51
-3 -56 -29 -3 -12 -17 -25 -55 -51 -5 -4 -10 -17 -11 -30 -1 -17 -8 -25 -24
-27 -13 -2 -20 -8 -16 -15 3 -7 -1 -4 -9 6 -14 17 -16 17 -38 -5 -12 -13 -18
-17 -14 -9 6 11 3 13 -13 9 -12 -3 -23 -1 -26 6 -2 6 -5 3 -5 -6 -1 -14 -10
-18 -40 -18 -33 0 -43 -5 -61 -31 -12 -16 -28 -28 -35 -25 -10 3 -9 -2 1 -24
8 -15 28 -33 44 -39 27 -9 29 -12 20 -36 -11 -29 -3 -105 11 -105 13 0 4 -103
-9 -108 -7 -2 -19 -19 -28 -38 -12 -24 -25 -37 -45 -41 -38 -7 -42 -6 -45 13
-3 21 -10 27 -23 20 -5 -4 -7 -21 -4 -39 5 -31 3 -34 -28 -43 -19 -5 -38 -19
-44 -30 -6 -11 -16 -19 -23 -16 -7 2 -10 -2 -6 -12 3 -8 10 -14 16 -13 14 3
19 -54 6 -70 -6 -7 -8 -13 -4 -13 4 0 -1 -11 -9 -24 -15 -23 -15 -25 4 -36 12
-6 21 -17 21 -26 0 -11 5 -12 18 -6 9 5 23 7 30 5 16 -6 15 18 -3 41 -19 25
-19 36 -1 36 8 0 16 3 19 8 2 4 2 1 1 -6 -2 -6 3 -12 11 -12 8 0 15 -5 15 -12
0 -7 6 -5 18 4 9 9 28 19 41 23 21 6 23 5 16 -11 -4 -11 -10 -28 -13 -39 -5
-18 -4 -18 12 -6 14 12 18 12 30 -4 12 -17 9 -23 -30 -60 -24 -22 -44 -45 -44
-50 0 -6 -19 -21 -41 -33 -30 -17 -44 -21 -52 -13 -15 15 -27 14 -27 -4 0 -8
-6 -15 -12 -15 -10 0 -9 -3 1 -9 14 -9 25 -61 13 -61 -4 0 -14 5 -22 11 -11 8
-12 12 -2 16 17 7 5 23 -19 23 -10 0 -19 6 -19 14 0 8 -9 24 -21 37 -11 13
-18 18 -14 12 4 -8 -1 -13 -11 -13 -16 0 -16 1 1 20 10 11 14 20 8 20 -5 0
-15 11 -21 25 -9 19 -19 25 -42 25 -16 0 -30 -4 -30 -10 0 -5 -7 -7 -15 -4 -8
4 -13 10 -10 14 3 5 0 12 -6 15 -5 4 -8 13 -5 21 4 12 2 12 -15 4 -11 -6 -17
-15 -14 -20 7 -12 -30 -50 -49 -50 -19 0 -28 -63 -10 -73 7 -4 11 -14 8 -22
-4 -9 0 -15 10 -15 9 0 16 -8 16 -17 0 -10 12 -29 26 -42 31 -30 28 -55 -8
-59 -27 -3 -27 -4 -12 -28 l16 -24 -47 0 c-38 0 -48 4 -52 20 -3 11 -14 20
-24 20 -11 0 -19 5 -19 10 0 6 7 10 15 10 8 0 15 5 15 10 0 6 7 10 16 8 11 -2
18 5 20 20 2 12 -1 22 -7 22 -7 0 -9 10 -5 26 9 33 -17 74 -45 74 -15 0 -19 5
-15 15 7 19 -3 47 -15 39 -5 -3 -9 0 -9 5 0 6 -5 11 -11 11 -8 0 -8 -4 0 -14
8 -10 9 -21 3 -33 -5 -10 -8 -28 -6 -40 3 -18 0 -22 -19 -20 -17 1 -23 -4 -25
-24 -3 -22 -9 -28 -37 -31 -21 -2 -36 1 -39 8 -7 19 5 54 20 54 7 0 16 5 19
11 11 17 -25 36 -69 35 -46 -2 -85 -19 -67 -30 6 -4 11 -18 11 -32 0 -13 3
-23 8 -23 27 4 37 -4 39 -31 2 -21 -2 -30 -12 -30 -13 0 -20 -13 -12 -23 1 -2
-4 -11 -10 -19 -7 -8 -10 -18 -6 -21 12 -13 41 -7 47 9 3 9 11 14 17 12 6 -2
9 -6 8 -8 -1 -3 3 -14 9 -26 10 -19 8 -21 -19 -22 -79 -5 -79 -5 -79 -28 0
-13 7 -24 15 -26 24 -5 1 -30 -31 -34 -36 -4 -54 7 -28 17 13 5 14 8 4 8 -27
2 -18 64 13 93 32 30 34 44 7 51 -14 3 -24 -1 -31 -15 -14 -26 -68 -21 -92 9
-10 13 -26 23 -36 23 -9 0 -33 9 -54 19 -28 14 -37 16 -37 6 0 -8 5 -17 10
-20 6 -3 10 -15 10 -25 0 -27 -27 -15 -34 16 -4 15 -14 24 -27 24 -11 0 -22 7
-25 15 -4 10 -15 12 -35 8 -19 -3 -29 -1 -29 6 0 7 -5 9 -11 6 -6 -4 -8 -13
-5 -21 3 -8 0 -11 -8 -8 -8 3 -13 12 -12 21 1 16 -14 22 -67 27 -16 2 -33 9
-37 16 -10 16 -70 24 -70 10 0 -6 -9 -10 -20 -10 -18 0 -19 3 -10 20 6 12 16
18 23 14 9 -5 9 -4 0 6 -8 8 -33 13 -63 12 -63 -1 -90 -9 -90 -27 0 -15 -120
-39 -149 -30 -10 3 -22 15 -28 27 -8 19 -10 19 -25 4 -15 -15 -17 -15 -23 3
-3 11 -15 23 -26 26 -10 4 -16 11 -13 17 4 7 2 8 -5 4 -7 -4 -10 -13 -8 -19 2
-7 0 -23 -5 -36 -6 -17 -5 -27 4 -32 10 -6 10 -15 1 -39 -6 -16 -7 -30 -2 -30
5 0 9 -7 9 -15 0 -9 -6 -12 -15 -9 -8 4 -22 1 -30 -6 -12 -10 -15 -9 -15 8 0
12 -5 24 -11 28 -6 3 -9 15 -6 25 3 11 1 17 -4 13 -5 -3 -9 -1 -9 5 0 17 22
24 31 10 14 -23 23 0 10 25 -7 13 -10 33 -6 45 4 12 2 21 -4 21 -19 0 -12 29
9 40 17 9 19 8 13 -7 -4 -14 -3 -15 6 -7 21 19 1 42 -47 53 -25 5 -50 7 -54 5
-20 -13 -5 15 17 32 31 23 40 44 17 42 -38 -3 -60 3 -66 18 -3 8 -2 12 4 9 6
-3 10 1 10 9 0 22 -27 20 -52 -4 -15 -13 -24 -16 -29 -9 -9 15 -51 -12 -44
-29 3 -8 0 -10 -7 -6 -8 5 -9 2 -5 -10 4 -10 7 -20 7 -22 0 -2 5 -4 10 -4 6 0
10 11 10 25 0 15 6 25 14 25 16 0 30 -43 16 -48 -5 -2 -6 -10 -3 -18 3 -9 -2
-14 -15 -14 -12 0 -24 -4 -27 -10 -13 -21 -64 0 -65 27 0 4 -7 16 -14 25 -11
15 -17 16 -39 5 -15 -6 -27 -20 -27 -30 0 -17 -22 -47 -33 -47 -2 0 -7 14 -10
30 -4 18 -13 30 -22 30 -12 0 -15 -6 -10 -19 4 -14 0 -23 -15 -31 -11 -6 -20
-7 -20 -3 0 4 -9 -7 -20 -25 -20 -33 -20 -33 -1 -110 l19 -77 -22 -15 c-11 -8
-26 -15 -32 -15 -6 0 -18 -6 -25 -12 -8 -6 -27 -10 -42 -9 -15 2 -27 0 -28 -3
0 -3 -3 -17 -5 -31 -3 -14 -5 -33 -6 -42 -1 -10 -5 -18 -9 -18 -12 0 -40 -87
-33 -104 7 -18 -20 -22 -44 -7 -9 5 -24 -3 -46 -25 -23 -23 -39 -31 -54 -28
-14 4 -24 -1 -31 -15 -12 -22 -57 -29 -63 -10 -2 6 -14 8 -31 3 -20 -5 -25
-10 -18 -17 17 -17 13 -26 -9 -20 -11 3 -20 9 -20 14 0 4 -15 5 -34 2 -26 -4
-39 0 -56 17 -39 39 -66 8 -34 -39 14 -19 14 -25 3 -32 -8 -5 -20 -9 -27 -9
-8 0 -10 -9 -6 -27 6 -27 6 -28 -11 -8 -9 11 -13 13 -9 5 7 -13 5 -13 -8 -2
-13 10 -17 10 -22 -3 -3 -9 -1 -25 5 -36 9 -19 9 -19 -13 -7 -13 7 -26 17 -30
23 -4 5 -10 1 -13 -10 -11 -33 -28 -64 -34 -63 -18 2 -31 -4 -56 -26 l-29 -25
27 -6 c14 -4 32 -3 39 1 22 14 48 15 48 1 0 -8 4 -7 11 3 8 11 9 9 3 -10 -4
-14 -9 -27 -13 -30 -3 -3 -12 -13 -20 -23 -12 -16 -12 -18 0 -15 8 2 13 -3 11
-11 -2 -8 3 -11 11 -8 8 3 14 -4 15 -19 1 -16 -3 -24 -14 -24 -31 0 -7 -25 25
-26 42 -1 59 -18 44 -43 -10 -16 -8 -17 13 -13 34 6 30 -15 -4 -23 -15 -3 -32
-16 -37 -28 -7 -16 -21 -24 -50 -27 -22 -3 -46 -9 -52 -13 -7 -5 -21 -3 -30 2
-10 6 -12 11 -5 11 6 0 12 11 12 24 0 13 7 27 16 30 15 6 15 8 0 25 -10 11
-19 28 -20 38 -2 13 -10 17 -31 15 -27 -4 -28 -3 -22 33 5 29 3 36 -8 31 -7
-2 -30 -8 -51 -12 -32 -6 -36 -5 -31 10 10 26 -3 46 -30 46 -14 0 -22 -4 -18
-11 9 -13 -27 -8 -37 6 -11 15 -10 35 3 35 17 0 46 33 32 37 -7 3 -9 11 -6 19
3 8 1 14 -5 14 -6 0 -13 18 -17 40 -4 22 -11 40 -16 40 -6 0 -7 5 -3 12 5 7 3
8 -7 2 -18 -11 -39 -14 -40 -6 0 4 -2 15 -4 24 -2 10 1 20 6 24 5 3 9 17 8 32
0 15 -3 21 -6 15 -2 -7 -11 -13 -18 -13 -7 0 -16 -7 -19 -16 -4 -9 -13 -14
-21 -10 -8 3 -15 1 -15 -5 0 -11 -18 2 -56 40 -24 24 -46 102 -32 112 5 3 2
12 -7 19 -9 7 -14 19 -11 26 3 8 0 11 -10 7 -10 -4 -12 0 -7 13 4 11 3 15 -4
11 -6 -4 -15 5 -21 22 -8 22 -6 34 6 53 21 30 44 26 61 -12 14 -32 31 -40 31
-14 0 8 -4 12 -10 9 -5 -3 -10 -1 -10 4 0 17 53 8 57 -10 10 -37 80 -52 126
-28 10 6 17 6 17 0 0 -5 -12 -14 -28 -19 -17 -7 -21 -11 -9 -11 9 -1 17 -8 17
-16 0 -8 10 -19 21 -26 20 -10 21 -9 17 9 -3 11 2 32 12 47 l18 27 13 -28 c10
-20 22 -28 38 -28 43 0 47 25 10 77 -39 55 -33 68 32 69 24 0 49 4 56 10 7 6
19 6 31 -1 10 -5 28 -8 39 -5 18 5 20 2 16 -20 -3 -14 0 -33 7 -41 6 -8 9 -19
6 -24 -8 -12 14 -27 23 -15 3 5 20 10 38 10 27 2 33 -3 42 -27 5 -16 7 -29 3
-29 -4 -1 5 -8 21 -16 15 -8 32 -12 37 -9 15 9 12 35 -4 41 -11 4 -13 12 -6
29 12 31 -19 71 -40 52 -10 -10 -10 -8 -1 11 7 13 19 26 27 29 19 7 18 19 -5
42 -20 20 -24 32 -22 63 1 15 36 35 54 30 4 -1 7 5 7 13 0 19 17 20 22 1 3
-12 6 -12 23 1 18 14 18 15 1 9 -13 -5 -17 -2 -13 9 4 8 -1 18 -9 23 -9 5 -15
12 -15 15 3 22 -1 27 -22 27 -26 0 -59 21 -57 35 4 19 -12 55 -22 49 -6 -4 -5
3 1 15 7 11 17 21 24 22 7 0 3 4 -8 9 -18 8 -17 9 8 9 15 1 27 6 27 12 0 7 11
9 30 6 22 -5 30 -3 30 8 0 8 6 15 13 15 21 0 16 32 -5 38 -21 5 -21 4 -9 35 8
20 5 31 -15 58 -14 19 -30 33 -35 32 -12 -4 -11 3 3 27 10 15 9 23 -7 40 -13
14 -18 33 -17 64 2 33 -2 46 -15 52 -10 4 -21 6 -25 6 -5 -1 -8 3 -8 9 0 6 -7
17 -15 25 -9 10 -15 11 -15 4 0 -6 -6 -10 -12 -7 -7 2 -12 10 -10 17 3 14 -29
41 -40 34 -5 -3 -8 3 -9 13 0 16 -1 16 -8 -2 -5 -11 -7 -23 -4 -27 2 -5 -3 -8
-11 -8 -9 0 -16 -4 -16 -8 0 -4 -14 -9 -31 -10 -36 -3 -86 -37 -69 -47 6 -4 9
-13 6 -21 -3 -8 -2 -13 2 -13 4 1 16 1 27 0 18 -2 18 -3 -4 -15 -27 -15 -79
-4 -87 19 -5 13 -84 16 -84 4 0 -4 -8 -9 -18 -12 -9 -2 -26 -8 -37 -12 -11 -5
-17 -5 -13 -1 3 4 -2 16 -13 27 -14 14 -16 24 -10 41 5 13 13 24 20 24 6 1 14
3 19 4 4 1 15 2 24 1 10 -1 24 11 33 29 14 28 14 31 0 36 -9 4 -27 2 -41 -5
-21 -9 -28 -8 -47 12 -24 25 -67 27 -46 1 8 -10 8 -14 0 -14 -6 0 -16 9 -23
19 -10 16 -14 17 -25 5 -12 -11 -17 -11 -27 -1 -19 19 -25 44 -14 55 6 6 8 21
4 34 -7 25 -60 71 -82 71 -8 0 -14 4 -14 9 0 5 -11 13 -25 18 -14 5 -25 16
-25 24 0 7 -7 16 -14 19 -10 4 -13 1 -9 -9 6 -17 -8 -19 -25 -2 -9 9 -12 9
-12 0 0 -7 -4 -12 -10 -12 -5 0 -10 7 -10 16 0 14 -3 14 -15 4 -14 -12 -13
-16 6 -37 13 -12 17 -23 11 -23 -6 0 -23 12 -38 28 -15 15 -23 21 -20 15 4 -8
1 -13 -8 -13 -9 0 -16 4 -16 10 0 5 -5 9 -11 7 -6 -1 -14 4 -17 12 -3 10 1 13
17 8 13 -3 21 0 21 7 0 7 -13 13 -30 13 -20 0 -26 -3 -18 -9 10 -6 9 -8 -3 -8
-21 0 -31 34 -15 51 8 9 7 10 -7 5 -10 -3 -21 -6 -23 -6 -3 0 -2 -4 1 -10 3
-5 -1 -10 -9 -10 -19 0 -28 -14 -20 -33 3 -9 14 -14 25 -12 24 5 24 -8 2 -31
-12 -12 -14 -19 -6 -21 7 -3 9 -11 6 -19 -3 -8 0 -14 7 -14 7 0 10 -6 7 -14
-3 -8 3 -25 14 -38 13 -15 19 -33 17 -50 -4 -24 -1 -28 20 -28 25 0 27 16 7
63 -6 13 -4 16 9 11 9 -3 16 -11 16 -18 0 -6 11 -24 25 -40 37 -43 29 -60 -30
-67 -28 -3 -45 -7 -40 -8 6 -1 -1 -7 -15 -12 -23 -10 -24 -11 -7 -23 18 -14
24 -66 7 -66 -5 0 -10 -10 -10 -23 0 -13 -6 -29 -12 -36 -11 -11 -10 -12 2 -6
12 6 13 5 2 -6 -10 -11 -18 -10 -47 6 -24 12 -32 22 -25 29 16 16 12 32 -12
44 -19 9 -20 11 -5 11 14 1 17 6 12 22 -5 15 -4 19 4 15 6 -4 11 -2 11 4 0 6
10 10 21 8 28 -4 40 29 22 62 -7 14 -13 19 -13 12 0 -8 -8 -10 -27 -6 -34 9
-63 34 -63 54 0 13 -8 15 -37 12 -21 -3 -42 -10 -46 -16 -6 -8 -10 -8 -14 2
-2 6 -15 12 -28 12 -15 0 -32 11 -45 29 -11 16 -30 31 -43 33 -27 4 -37 38
-10 38 10 0 14 4 8 8 -16 11 -17 34 -3 43 11 7 10 9 -1 9 -10 0 -12 11 -6 48
4 26 11 55 16 65 10 17 2 22 -28 18 -7 -1 -13 2 -13 7 0 13 -98 45 -111 36
-18 -11 -65 -13 -80 -3 -8 5 -17 0 -24 -14 -7 -12 -17 -21 -23 -20 -20 5 -13
-15 13 -39 17 -16 22 -27 15 -37 -12 -21 -40 4 -40 35 0 13 -5 24 -11 24 -5 0
-8 4 -4 9 3 5 -4 16 -16 24 -20 14 -20 16 -2 26 14 8 15 11 3 12 -8 1 -21 0
-29 -1 -8 -1 -17 4 -21 10 -5 8 -9 7 -14 -5 -4 -12 0 -18 14 -22 12 -3 19 -11
17 -17 -7 -21 -38 -18 -58 5 -15 18 -22 20 -28 10 -6 -9 -10 -7 -14 9 -3 12
-10 19 -16 15 -13 -7 17 -42 51 -59 22 -11 57 -91 45 -103 -4 -3 -18 -6 -32
-5 -32 0 -32 -14 0 -22 14 -4 25 -11 25 -16 0 -12 -22 -9 -32 5 -4 6 -6 -12
-4 -40 3 -27 2 -43 -1 -35 -3 8 -11 18 -16 22 -6 3 -10 22 -9 42 2 43 -8 50
-43 32 -23 -12 -33 -12 -72 1 -30 10 -43 20 -39 29 4 9 -2 14 -17 14 -17 0
-19 -2 -7 -10 8 -5 12 -11 9 -14 -8 -9 -26 8 -33 32 -5 13 -3 22 3 22 6 0 11
5 11 10 0 6 -7 10 -15 10 -8 0 -15 5 -15 12 0 6 -3 8 -7 5 -3 -4 -11 3 -18 16
-9 19 -18 21 -54 19 l-44 -4 6 31 c4 17 3 31 -1 31 -4 0 -8 9 -8 20 0 11 3 20
7 20 4 0 5 9 2 19 -7 28 32 48 53 26 13 -12 19 -13 37 -3 25 14 58 11 70 -6 6
-7 7 -4 3 7 -3 10 -6 23 -6 28 0 6 -5 7 -10 4 -12 -7 -13 5 -2 22 4 7 13 9 21
4 7 -5 10 -14 7 -20 -6 -9 26 0 52 15 1 1 -2 13 -7 28 -7 17 -7 26 -1 26 20 0
25 -5 22 -23 -4 -20 14 -47 30 -47 6 0 8 6 5 13 -4 10 2 13 19 9 13 -2 24 -8
24 -12 0 -14 56 -28 73 -18 11 5 24 5 36 -2 25 -13 34 -13 26 0 -3 6 -2 10 4
10 9 0 8 19 -5 73 -5 23 -3 27 15 27 11 0 21 -4 21 -9 0 -15 32 -22 47 -10 10
9 11 15 3 23 -13 13 -13 29 0 21 6 -3 10 4 10 16 0 18 2 20 15 9 24 -20 41 2
20 24 -21 20 -32 20 -43 0 -7 -12 -15 -14 -33 -8 -13 4 -35 8 -49 8 -14 1 -24
6 -23 12 2 13 -28 15 -44 2 -8 -6 -15 2 -24 26 -9 24 -16 32 -21 23 -5 -8 -8
-7 -8 5 0 10 -9 22 -20 28 -11 6 -20 8 -20 5 0 -3 -6 0 -14 7 -8 7 -11 17 -8
22 3 5 -2 7 -11 3 -10 -3 -17 -2 -17 3 0 6 5 10 10 10 6 0 10 5 10 10 0 7 -6
7 -20 0 -10 -6 -17 -16 -14 -24 3 -7 -2 -19 -11 -26 -10 -8 -15 -9 -15 -1 0 6
-4 11 -10 11 -20 0 -10 -49 12 -61 l22 -12 -24 -10 c-14 -6 -27 -11 -30 -11
-3 -1 -11 -5 -17 -9 -7 -5 -13 -5 -13 0 0 4 -5 1 -10 -7 -8 -13 -10 -13 -10 2
0 11 -6 15 -20 11 -11 -3 -20 -7 -20 -9 0 -9 41 -44 51 -44 5 0 8 -4 4 -9 -3
-6 -17 -4 -33 4 -15 8 -35 16 -45 19 -14 5 -16 10 -7 25 12 23 -5 40 -23 22
-14 -14 -47 -14 -47 0 0 6 -7 8 -17 5 -15 -6 -15 -4 2 14 10 11 13 20 7 20 -7
0 -12 -5 -12 -11 0 -6 -7 -8 -16 -5 -9 4 -13 2 -8 -5 4 -7 1 -10 -7 -7 -8 2
-20 18 -28 35 -8 17 -23 36 -35 42 -20 11 -20 11 2 7 15 -3 22 0 19 7 -2 7 2
18 10 26 13 12 14 11 9 -10 -6 -24 -6 -24 6 1 16 31 53 70 68 70 5 0 10 5 10
10 0 6 11 8 25 4 15 -4 25 -2 25 5 0 6 9 11 20 11 11 0 20 5 20 11 0 5 -5 7
-12 3 -7 -4 -8 -3 -4 5 4 6 11 9 16 6 5 -3 11 -1 14 4 3 5 -1 11 -9 15 -8 3
-15 14 -15 25 0 11 -6 21 -12 24 -10 4 -10 7 0 18 10 11 12 10 12 -4 0 -24 13
-21 26 7 11 23 9 24 -25 29 -20 2 -41 0 -47 -4 -6 -5 -14 -6 -18 -2 -4 4 -4 0
0 -10 9 -23 -12 -22 -29 3 -8 11 -16 18 -19 15 -3 -3 -11 1 -18 10 -10 12 -10
15 0 15 19 0 60 48 60 72 0 15 4 18 17 14 15 -6 15 -5 -1 13 -13 15 -14 20 -4
24 8 4 6 6 -5 6 -10 1 -16 5 -12 11 3 5 12 7 20 3 8 -3 15 0 15 6 0 6 -5 11
-11 11 -5 0 -7 5 -4 10 4 6 11 8 16 5 5 -4 9 0 9 7 0 7 3 24 7 38 6 21 4 23
-9 13 -19 -16 -38 1 -31 28 7 24 12 24 30 2 10 -13 16 -14 19 -6 4 8 13 9 27
4 34 -13 49 9 31 44 -11 21 -11 25 -1 17 7 -6 22 -11 32 -11 11 1 30 -2 41 -6
26 -8 35 10 23 43 -7 17 -14 22 -29 17 -13 -4 -25 1 -36 14 -10 11 -22 17 -28
14 -6 -4 -3 3 8 15 17 19 17 22 2 37 -17 18 -22 60 -7 69 5 3 11 14 14 25 3
14 1 18 -9 14 -8 -3 -14 1 -14 11 0 9 -4 16 -9 16 -5 0 -16 12 -23 28 -21 40
-42 76 -49 82 -15 13 -18 41 -4 46 21 8 19 26 -2 22 -13 -2 -17 3 -15 16 2 11
-1 15 -7 11 -6 -3 -11 -3 -12 2 0 4 -2 17 -4 28 -10 49 -9 63 4 79 12 14 12
16 -3 10 -9 -3 -16 -1 -16 5 0 6 4 11 9 11 13 0 21 41 11 60 -6 12 -3 20 13
29 l21 14 -21 8 c-35 13 -102 8 -105 -7 -3 -12 -7 -12 -30 0 -15 8 -29 12 -32
8 -5 -5 -10 31 -7 51 1 9 -7 9 -28 -2 -9 -5 -22 -7 -27 -3 -15 10 -25 42 -13
42 6 0 9 5 7 12 -5 13 -46 19 -54 6 -10 -16 -34 -8 -34 12 0 11 6 20 13 20 7
0 18 10 26 21 11 18 11 23 -1 30 -10 7 -10 9 2 9 10 0 11 3 4 8 -6 4 -16 16
-22 27 -6 11 -12 14 -12 8 0 -7 -5 -13 -11 -13 -5 0 -7 5 -4 10 3 6 2 10 -4
10 -5 0 -11 8 -13 18 -4 19 40 74 53 66 5 -3 9 7 9 22 0 21 -3 25 -11 17 -9
-9 -21 -2 -49 25 -36 34 -37 37 -23 59 8 13 13 29 10 37 -3 8 1 17 9 20 8 3
14 1 14 -4 0 -6 5 -10 10 -10 6 0 10 6 10 14 0 8 7 16 15 20 22 8 18 36 -5 36
-14 0 -18 -5 -14 -17 5 -17 5 -17 -6 0 -10 16 -87 17 -1380 17 l-1370 0 0
-3600z m8928 1498 c-2 -7 -10 -18 -18 -25 -13 -11 -12 -12 5 -13 18 0 18 -1
-3 -16 -12 -8 -22 -22 -22 -31 0 -13 3 -13 16 -3 12 11 18 10 32 -5 16 -18 16
-18 0 -6 -15 11 -18 11 -18 -2 0 -8 5 -17 10 -19 6 -2 12 -13 13 -26 0 -12 5
-22 9 -22 20 0 5 -28 -14 -29 -102 -3 -140 -8 -147 -19 -4 -7 -16 -13 -27 -13
-46 1 -54 5 -49 20 6 21 -10 47 -19 32 -11 -17 -26 -3 -26 24 0 28 33 55 60
48 16 -4 18 -9 9 -24 -13 -25 -4 -24 22 2 13 13 19 29 17 44 -4 21 -2 22 24
14 23 -6 33 -4 49 12 19 19 19 20 -3 29 -19 8 -17 9 11 4 23 -4 31 -3 27 5 -4
6 -4 16 -1 21 9 14 45 12 43 -2z m-5456 -644 c12 -1 29 -3 36 -3 7 -1 10 -6 7
-11 -5 -8 -11 -7 -21 1 -10 8 -14 8 -14 0 0 -11 13 -15 37 -12 6 1 15 -4 19
-10 5 -8 2 -10 -7 -5 -8 4 -6 1 4 -7 14 -11 15 -16 5 -20 -9 -4 -8 -6 3 -6 9
-1 22 -7 28 -15 10 -12 6 -17 -23 -27 -33 -12 -51 -39 -26 -39 6 0 10 4 10 10
0 10 52 40 71 40 7 0 9 -9 5 -25 -4 -14 -2 -25 4 -25 5 0 10 -5 10 -11 0 -8
-4 -8 -15 1 -8 6 -20 8 -26 4 -8 -5 -9 -3 -4 5 5 9 2 12 -11 9 -11 -2 -18 -10
-16 -17 1 -7 -2 -10 -8 -6 -6 4 -17 2 -24 -4 -10 -8 -21 -7 -41 3 -16 8 -33
12 -38 9 -5 -3 -6 4 -2 16 4 15 3 21 -7 19 -8 -2 -12 5 -11 17 2 26 -27 75
-47 76 -8 1 -1 6 17 11 18 6 34 19 37 32 5 17 8 18 15 7 5 -8 20 -15 33 -17z
m332 -91 c4 -9 0 -23 -7 -32 -16 -18 -11 -42 9 -54 14 -8 8 -37 -9 -48 -5 -4
-10 -22 -11 -40 0 -19 -7 -40 -13 -47 -7 -7 -13 -10 -13 -6 0 3 -6 1 -13 -5
-10 -8 -14 -7 -15 2 -8 62 -7 83 3 94 21 21 -5 96 -32 93 -14 -1 -15 42 -1 51
7 5 23 7 35 4 12 -3 24 -1 28 5 8 12 32 2 39 -17z m141 -163 c8 0 18 -6 22
-13 4 -8 16 -17 27 -20 13 -5 17 -14 13 -33 -3 -15 1 -28 8 -30 7 -3 10 -15 8
-28 -3 -13 0 -27 6 -30 5 -4 8 -13 4 -21 -3 -8 0 -15 7 -15 9 0 7 -7 -5 -20
-21 -24 -17 -30 21 -34 24 -3 29 -8 30 -33 0 -16 4 -34 8 -41 4 -6 3 -18 -1
-24 -9 -15 -53 -19 -53 -6 0 5 -5 6 -10 3 -6 -3 -18 1 -27 10 -14 14 -14 18
-2 26 11 7 9 9 -7 9 -30 0 -34 8 -17 41 8 16 12 36 9 44 -3 8 -1 15 4 15 15 0
12 16 -5 33 -7 8 -17 26 -21 41 -6 26 -44 57 -44 36 0 -34 -44 20 -54 68 -7
28 -5 32 12 32 11 0 22 -6 25 -12 3 -9 7 -6 13 6 4 12 9 15 12 8 2 -7 10 -12
17 -12z m6840 -127 c11 -2 25 -5 32 -5 7 -1 10 -5 7 -9 -2 -4 1 -11 9 -16 7
-4 17 -19 23 -32 9 -21 11 -22 26 -8 11 11 18 13 26 5 15 -15 3 -38 -18 -38
-23 0 -32 -13 -24 -34 4 -11 11 -13 22 -7 10 4 22 6 29 4 7 -2 20 0 30 6 11 5
25 6 32 2 17 -11 -3 -25 -54 -38 -22 -6 -48 -14 -57 -18 -14 -5 -16 -2 -12 24
4 26 2 31 -14 31 -11 0 -22 -9 -25 -20 -3 -11 -1 -18 3 -15 5 3 11 1 14 -4 3
-5 -2 -12 -11 -16 -10 -3 -19 -1 -21 4 -2 6 -10 11 -18 11 -20 0 -17 27 6 50
20 20 19 40 -2 40 -6 0 -16 8 -23 17 -10 14 -16 15 -28 5 -12 -10 -19 -6 -43
25 -15 20 -22 33 -15 29 6 -4 19 -2 28 6 10 8 14 8 10 1 -4 -6 -3 -14 3 -18 6
-3 10 3 10 15 0 17 4 21 18 15 9 -4 26 -9 37 -12z m254 -205 c12 -10 27 -18
33 -18 6 0 2 -9 -11 -21 -18 -17 -20 -23 -9 -37 11 -13 10 -15 -11 -9 -34 8
-71 -9 -71 -33 0 -28 -27 -36 -50 -15 -19 17 -19 16 -13 -17 4 -31 2 -36 -18
-41 -36 -10 -61 -8 -54 3 3 6 -1 13 -10 16 -9 4 -14 12 -11 19 3 9 -8 12 -39
10 -24 -1 -42 2 -39 7 3 5 0 16 -8 25 -9 12 -9 15 0 9 18 -11 15 5 -4 19 -11
7 -14 19 -10 31 5 16 15 21 51 21 36 1 44 -3 47 -19 3 -19 3 -19 25 1 12 12
29 21 38 21 27 0 56 20 48 33 -4 7 0 7 10 -2 15 -12 17 -11 17 3 0 9 5 16 11
16 5 0 8 -4 5 -8 -2 -4 -1 -14 4 -21 5 -10 10 -4 15 18 5 25 9 29 20 18 7 -6
22 -20 34 -29z m295 10 c-3 -10 3 -42 12 -71 10 -28 17 -58 15 -66 -1 -8 2
-10 10 -6 9 6 10 1 7 -19 -6 -31 7 -35 15 -4 4 12 9 19 13 16 9 -10 -4 -54
-21 -72 -14 -14 -13 -16 12 -22 15 -4 31 -12 35 -17 8 -13 -20 -36 -44 -37
-27 0 -30 -18 -8 -40 17 -17 18 -23 8 -34 -9 -10 -17 -11 -25 -4 -10 8 -13 6
-13 -5 0 -10 -6 -14 -15 -11 -16 7 -19 -13 -8 -54 4 -17 11 -22 25 -19 14 4
18 2 14 -10 -3 -8 -6 -19 -6 -24 0 -5 -5 -9 -11 -9 -5 0 -7 5 -4 10 7 11 -9
13 -42 4 -14 -4 -24 -17 -29 -38 -10 -50 -22 -59 -72 -51 -38 6 -44 4 -39 -9
4 -9 3 -16 -1 -16 -4 0 -18 -3 -31 -7 -21 -5 -22 -4 -12 15 16 31 6 33 -113
33 -17 0 -39 7 -49 17 -46 41 -57 110 -16 97 11 -4 19 -3 20 2 2 28 10 51 32
92 13 25 22 52 19 59 -4 14 -32 16 -32 2 0 -5 -5 -10 -12 -10 -6 0 -19 -7 -28
-15 -16 -14 -17 -14 -13 10 3 14 10 25 15 25 5 0 6 5 2 11 -4 8 -9 8 -17 0
-14 -14 -37 -14 -37 0 0 5 5 7 10 4 12 -7 42 20 33 29 -4 3 -1 6 6 6 7 0 9 5
6 10 -4 6 -12 7 -18 4 -7 -4 -2 3 10 15 12 11 27 21 32 21 5 0 13 5 17 12 5 8
2 9 -10 5 -9 -4 -15 -3 -12 2 3 5 28 8 54 7 29 -1 49 2 49 9 0 33 6 43 37 55
22 8 37 22 41 37 3 13 10 21 15 18 6 -3 10 -1 10 6 0 8 7 6 19 -5 19 -17 20
-17 31 3 11 22 36 28 42 10 2 -5 18 -12 35 -15 l32 -5 -14 28 c-19 37 -19 42
5 40 14 -1 18 -6 14 -19z m-2204 -17 c0 -5 12 -6 26 -2 14 3 42 5 63 3 32 -3
41 -9 54 -37 13 -28 20 -32 45 -29 20 2 32 -2 36 -11 6 -18 -9 -29 -26 -19
-10 6 -10 5 -1 -8 11 -12 10 -19 -6 -36 -10 -12 -21 -19 -25 -15 -3 3 -6 2 -6
-3 0 -6 5 -15 11 -21 6 -6 9 -19 6 -29 -4 -17 -6 -17 -12 4 -4 12 -12 22 -17
22 -5 0 -6 5 -3 10 3 6 -1 17 -10 26 -14 15 -14 17 2 31 17 14 17 14 0 9 -11
-3 -22 2 -29 14 -7 11 -18 20 -25 20 -7 0 -13 5 -13 11 0 6 -16 10 -37 9 -72
-3 -102 18 -65 46 20 16 32 18 32 5z m-5050 -546 c17 -9 30 -12 30 -8 0 4 4 3
9 -2 6 -6 11 -35 12 -65 2 -30 9 -66 16 -80 7 -14 13 -20 13 -15 0 6 11 11 24
11 22 2 23 0 13 -17 -6 -10 -19 -19 -29 -19 -9 0 -20 -4 -23 -10 -11 -18 -54
-11 -65 11 -9 16 -14 18 -26 8 -8 -7 -30 -9 -52 -7 -24 4 -42 1 -50 -8 -7 -8
-17 -14 -22 -14 -9 0 -8 9 6 48 4 9 7 36 8 59 1 23 7 48 14 55 9 9 12 9 12 -5
0 -9 4 -17 9 -17 14 0 33 28 26 40 -3 5 -2 10 4 10 5 0 13 9 16 20 8 24 17 25
55 5z m322 -245 c7 -16 16 -30 20 -30 5 0 8 -14 8 -31 0 -16 -4 -28 -9 -25 -5
4 -7 -3 -4 -14 3 -13 0 -20 -8 -20 -12 0 -12 -2 -1 -9 8 -4 13 -12 13 -17 -3
-32 11 -44 43 -38 28 5 34 2 39 -15 3 -14 11 -18 24 -15 12 4 32 -5 52 -21 19
-17 38 -25 48 -21 12 5 13 4 5 -7 -7 -8 -9 -17 -5 -20 3 -4 0 -7 -7 -7 -11 0
-11 -3 -2 -12 13 -13 16 -54 5 -61 -13 -8 -55 12 -48 22 3 5 -4 12 -15 16 -11
3 -20 10 -20 15 0 5 -9 12 -20 15 -14 4 -20 15 -20 36 0 24 -4 30 -17 27 -10
-2 -26 5 -35 16 -18 19 -18 18 -18 -17 0 -27 5 -37 21 -42 13 -4 18 -12 15
-22 -3 -8 -6 -19 -6 -24 0 -5 -10 -5 -24 1 -13 5 -27 6 -30 3 -3 -4 -6 1 -6
10 0 9 -9 21 -20 27 -11 6 -18 14 -16 19 3 4 -8 20 -25 35 -16 15 -29 32 -29
38 0 6 -7 8 -15 4 -9 -3 -15 0 -15 9 0 8 -3 15 -7 15 -10 0 -32 47 -26 54 3 3
20 -1 37 -8 37 -15 93 -4 93 19 0 8 -6 15 -13 15 -21 0 -27 38 -10 56 9 8 16
24 16 35 0 29 17 23 32 -11z m6204 -45 c-3 -8 -1 -15 4 -15 5 0 5 -12 0 -29
-4 -15 -4 -35 1 -42 6 -10 9 -11 9 -1 0 7 15 12 40 12 29 0 40 -4 40 -15 0
-17 26 -20 35 -5 4 6 2 17 -5 25 -9 11 -7 16 9 24 11 6 27 8 35 5 9 -4 24 0
33 7 15 12 16 11 11 -8 -4 -13 -2 -26 3 -29 5 -3 2 -15 -6 -27 -8 -12 -15 -29
-15 -37 0 -9 -15 -33 -34 -53 -28 -31 -39 -37 -60 -31 -17 4 -35 0 -50 -9 -13
-9 -42 -15 -65 -14 -38 1 -42 4 -37 23 3 11 2 24 -1 28 -13 13 -9 135 4 141 7
2 10 11 7 20 -3 8 -1 15 5 15 6 0 8 7 5 15 -4 11 0 15 16 15 16 0 20 -4 16
-15z m-5363 -82 c-6 -16 2 -16 29 -2 18 10 20 9 14 -7 -4 -10 -1 -21 6 -26 10
-6 7 -10 -9 -14 -13 -4 -23 -10 -23 -15 0 -5 7 -6 16 -2 13 5 15 1 9 -18 -3
-13 -3 -19 2 -13 11 14 46 27 38 14 -3 -6 -1 -10 5 -10 6 0 8 -5 4 -12 -6 -9
-9 -9 -12 0 -2 7 -8 10 -12 7 -5 -3 -7 -12 -4 -20 9 -23 -13 -54 -36 -48 -11
3 -20 10 -20 16 0 6 -3 7 -6 4 -7 -7 -45 37 -43 50 4 21 -2 34 -12 28 -7 -5
-9 5 -7 26 2 21 8 33 16 32 6 -2 12 2 12 7 0 6 -4 10 -10 10 -5 0 -7 6 -4 14
4 11 10 11 28 3 13 -6 21 -17 19 -24z m-1083 -74 c0 9 5 8 15 -3 9 -8 15 -19
14 -23 -4 -16 13 -43 27 -43 8 0 14 -3 14 -7 0 -5 3 -18 6 -31 4 -13 3 -22 -2
-21 -24 4 -58 -2 -47 -9 21 -13 34 -61 23 -82 -9 -17 -8 -18 7 -13 16 6 16 5
4 -10 -7 -9 -10 -17 -6 -17 4 0 2 -7 -5 -15 -7 -8 -17 -12 -22 -9 -6 4 -14 0
-19 -7 -7 -11 -12 -12 -26 -1 -10 6 -29 17 -43 22 -42 17 -55 26 -67 50 -6 12
-17 26 -23 30 -9 5 -6 10 9 15 14 4 20 12 17 21 -3 8 0 14 7 14 8 0 8 3 -2 9
-11 7 -10 11 4 19 14 7 17 17 12 40 -6 28 -4 31 21 34 21 2 29 11 36 35 l10
32 18 -21 c10 -12 18 -16 18 -9z m6670 -105 c0 -8 -4 -13 -9 -9 -6 3 -6 -7 -1
-26 5 -18 7 -36 4 -40 -3 -5 0 -9 5 -9 6 0 2 -9 -9 -20 -16 -16 -18 -25 -10
-40 6 -10 16 -23 24 -27 16 -10 27 -51 15 -59 -18 -10 -9 -22 24 -29 17 -4 36
-7 41 -6 9 2 29 -21 48 -54 11 -19 10 -20 -10 -2 -17 16 -23 16 -41 5 -12 -7
-21 -22 -21 -33 0 -16 2 -17 10 -5 11 18 26 5 35 -32 6 -24 4 -27 -27 -33 -29
-6 -34 -11 -36 -38 -3 -36 -15 -52 -39 -52 -9 0 -18 -6 -20 -12 -3 -7 2 -13
11 -13 33 0 3 -45 -35 -55 -14 -3 -37 -16 -50 -28 -13 -13 -32 -21 -41 -19
-10 2 -18 -1 -18 -7 0 -6 -5 -11 -11 -11 -7 0 -8 7 -4 18 4 9 8 29 8 45 0 19
6 27 19 27 26 0 22 14 -7 30 -14 7 -25 17 -25 21 0 13 22 22 29 11 3 -5 24
-15 45 -21 32 -8 43 -8 55 4 20 17 22 101 3 97 -9 -2 -10 3 -4 15 17 32 4 39
-62 37 -53 -3 -64 0 -62 13 1 8 10 19 19 25 14 7 15 12 5 28 -9 14 -14 16 -20
7 -6 -9 -8 -8 -8 3 0 8 -9 21 -20 28 -18 11 -21 10 -29 -11 -10 -25 -36 -41
-52 -31 -5 3 -9 18 -9 34 0 33 27 54 57 43 14 -5 15 -3 6 7 -8 9 -6 20 9 47
15 25 18 37 10 45 -8 8 -14 4 -21 -14 -11 -29 -41 -46 -41 -23 0 11 -5 10 -21
-6 -14 -14 -19 -29 -16 -45 2 -13 0 -24 -4 -24 -5 0 -9 4 -9 9 0 6 -13 18 -29
27 -33 20 -48 54 -24 54 10 0 14 6 10 20 -4 17 -1 19 21 14 15 -3 22 -2 17 3
-15 12 -13 45 4 51 10 3 11 -2 6 -19 -5 -19 -4 -21 5 -9 9 13 12 12 27 -5 10
-12 14 -14 10 -5 -6 20 49 55 57 37 2 -7 5 -4 5 6 1 15 8 18 34 16 45 -4 84
10 90 31 4 16 22 24 65 29 6 0 12 -6 12 -15z m-5886 -81 c22 -23 27 -25 41
-13 43 35 59 37 92 12 34 -25 127 -39 139 -21 10 17 32 9 38 -16 4 -15 11 -22
19 -19 8 3 20 -2 27 -11 11 -13 9 -15 -11 -17 -13 0 -30 -1 -38 0 -8 0 -20 -6
-28 -14 -8 -8 -26 -14 -39 -14 -14 0 -22 -4 -19 -10 3 -5 -1 -10 -9 -10 -23 0
-20 -43 4 -65 21 -19 28 -65 9 -65 -5 0 -7 -5 -3 -12 5 -8 0 -9 -14 -6 -12 4
-25 2 -28 -3 -3 -5 -10 -7 -15 -4 -11 7 -9 84 3 91 18 11 8 42 -14 42 -45 0
-94 11 -124 26 -22 12 -39 13 -62 7 -30 -9 -36 -7 -33 11 0 4 -6 5 -15 1 -13
-5 -15 -1 -10 18 6 20 5 21 -4 7 -16 -26 -33 -23 -20 2 10 19 10 20 -10 8 -11
-7 -18 -19 -15 -25 2 -7 -2 -13 -9 -13 -16 0 -10 40 8 52 7 5 3 8 -8 8 -15 0
-16 2 -6 15 8 10 24 14 42 11 25 -4 28 -1 28 21 0 20 4 24 20 20 11 -3 23 -1
26 4 8 13 11 12 38 -18z m7386 1 c4 -10 2 -22 -4 -26 -8 -6 -7 -8 2 -8 6 0 12
-7 12 -15 0 -12 10 -14 40 -12 22 2 42 6 46 10 3 3 13 0 21 -8 21 -22 7 -55
-23 -55 -24 0 -25 -2 -21 -55 2 -30 0 -52 -5 -49 -4 3 -8 0 -8 -7 0 -7 -3 -9
-7 -6 -12 12 -31 -14 -25 -35 3 -14 1 -19 -6 -14 -7 4 -12 2 -12 -3 0 -6 -6
-11 -14 -11 -20 0 -28 101 -11 156 7 24 9 42 5 39 -18 -11 -42 8 -38 30 4 18
1 21 -19 17 -18 -3 -21 -8 -13 -17 8 -10 3 -15 -22 -24 -30 -10 -31 -9 -14 4
11 8 20 27 21 42 0 14 6 28 13 31 7 2 12 10 12 17 0 30 60 29 70 -1z m-4380
-702 c14 -6 20 -11 13 -11 -6 -1 -19 -9 -29 -18 -10 -10 -22 -18 -28 -18 -6 0
-12 -14 -14 -31 -2 -25 1 -33 19 -37 l22 -6 -22 -36 -21 -36 22 3 c23 3 36
-15 53 -72 7 -24 7 -24 -11 -8 -11 9 -38 21 -61 27 -44 12 -73 34 -73 54 0 24
18 40 39 34 14 -3 21 0 21 10 0 8 -4 12 -8 9 -13 -8 -29 7 -35 35 -6 21 -2 30
18 43 26 17 35 42 11 33 -20 -8 -37 13 -23 28 13 14 71 13 107 -3z m-152 -258
c41 -8 56 -39 34 -72 -11 -17 -23 -22 -45 -20 -25 3 -32 -2 -40 -26 -7 -20 -6
-30 2 -35 13 -8 0 -54 -18 -66 -14 -8 -82 5 -76 15 3 5 1 11 -5 15 -5 3 -8 19
-6 35 2 17 0 30 -5 30 -5 0 -8 11 -7 25 1 14 8 25 15 25 7 0 13 6 13 13 0 7
16 21 35 32 20 10 34 24 31 30 -4 12 0 12 72 -1z m198 -221 c-3 -4 3 -12 15
-19 16 -8 30 -8 52 0 23 8 31 8 34 -1 3 -7 11 -13 18 -13 8 0 11 -7 8 -20 -4
-14 1 -22 18 -29 18 -7 19 -10 7 -10 -11 -1 -18 -9 -18 -21 0 -11 -6 -20 -12
-21 -10 0 -10 -2 0 -6 22 -9 12 -19 -38 -37 -51 -19 -98 -15 -112 7 -11 18
-10 49 2 42 6 -3 10 -1 10 4 0 6 -5 11 -12 11 -9 0 -9 3 0 12 17 17 15 28 -4
28 -10 0 -14 6 -11 15 5 11 0 13 -23 8 -20 -3 -30 -1 -30 6 0 7 5 9 10 6 6 -3
10 3 10 14 0 10 6 22 13 24 19 8 71 8 63 0z m3008 -192 c-5 -25 -3 -28 17 -27
19 1 24 -4 22 -21 -4 -34 26 -29 66 12 30 30 33 36 20 51 -12 15 -12 17 1 12
19 -6 26 -38 9 -48 -18 -12 -22 -67 -4 -74 8 -3 15 -10 15 -16 0 -6 -4 -8 -10
-5 -5 3 -20 -3 -32 -14 -12 -12 -16 -21 -10 -21 7 0 12 -7 12 -16 0 -8 5 -12
10 -9 6 3 10 2 10 -3 0 -14 -29 -36 -37 -29 -3 4 -12 2 -20 -4 -12 -11 -15 -7
-12 17 0 4 -5 10 -11 14 -7 4 -12 24 -13 44 -1 20 -4 36 -7 36 -4 0 -21 -16
-39 -35 -44 -49 -71 -43 -71 16 0 10 -7 19 -15 19 -18 0 -18 -1 0 44 9 20 13
41 10 45 -5 8 10 15 65 31 14 4 26 8 27 9 1 0 0 -12 -3 -28z m-206 -138 c20 4
34 1 42 -8 15 -18 -1 -20 -18 -3 -9 9 -12 6 -12 -16 0 -24 3 -27 21 -23 16 4
30 -4 54 -31 l34 -36 -25 -29 c-13 -16 -24 -39 -24 -52 0 -32 -19 -36 -58 -13
-32 19 -33 19 -60 2 -15 -10 -31 -17 -35 -16 -5 1 -2 -7 7 -20 12 -16 13 -25
4 -35 -9 -12 -7 -13 15 -8 31 8 56 -3 36 -16 -11 -7 -10 -9 5 -9 10 0 27 -10
37 -22 19 -21 19 -22 -3 -46 -18 -19 -30 -23 -58 -19 -19 3 -42 8 -51 12 -12
4 -18 -1 -23 -19 -3 -14 -11 -26 -16 -26 -6 0 -10 -9 -10 -20 0 -17 -3 -19
-19 -11 -25 14 -33 38 -21 61 13 24 -7 61 -27 53 -8 -3 -13 3 -13 16 0 18 -4
20 -25 15 -15 -4 -25 -2 -25 4 0 6 -9 13 -19 17 -13 4 -17 12 -14 26 4 14 11
18 24 14 12 -4 19 -1 19 7 1 8 6 6 15 -6 7 -10 17 -16 22 -13 4 2 17 1 28 -3
14 -5 25 1 43 22 13 15 31 28 40 29 11 0 12 2 5 6 -18 7 -16 23 2 23 13 0 16
7 15 35 0 3 5 12 12 19 10 11 16 11 27 2 12 -9 13 -8 8 8 -6 14 -4 17 8 12 11
-4 15 1 15 19 0 19 -7 26 -27 31 -33 8 -53 22 -53 38 0 6 5 4 11 -4 7 -11 8
-6 4 19 -5 22 -4 31 3 27 6 -3 14 -1 17 4 5 7 11 5 19 -6 10 -13 21 -15 44
-11z"/>
<path d="M3182 5534 c-7 -14 -8 -23 -3 -20 4 3 19 -3 31 -14 13 -11 27 -20 32
-20 5 0 6 -5 3 -10 -3 -6 1 -17 9 -26 9 -8 16 -13 16 -9 0 3 11 -6 24 -22 26
-30 71 -37 95 -15 12 12 12 15 0 23 -8 5 -17 9 -20 9 -4 0 -9 18 -12 40 -8 60
-23 73 -72 65 -31 -4 -45 -2 -55 10 -18 22 -35 18 -48 -11z"/>
<path d="M8162 4546 c-24 -13 -20 -26 10 -26 10 0 18 -5 18 -11 0 -5 5 -7 12
-3 8 5 9 2 5 -9 -4 -10 -1 -17 6 -18 7 0 0 -5 -14 -10 -15 -6 -34 -24 -42 -41
-14 -28 -13 -34 3 -64 17 -30 18 -33 2 -39 -12 -5 -13 -9 -4 -12 6 -3 12 -13
12 -24 0 -10 7 -19 15 -19 9 0 12 -6 8 -16 -4 -12 -2 -15 8 -12 8 3 13 12 11
20 -3 18 24 32 33 18 11 -18 34 -10 32 10 -1 11 -5 20 -10 20 -5 0 -7 7 -3 15
8 21 -11 19 -23 -2 -8 -13 -9 -3 -6 39 3 50 1 58 -16 63 -23 8 -25 21 -4 29 8
3 15 14 15 24 0 11 -7 25 -15 32 -18 15 -20 35 -3 24 7 -4 8 -3 4 5 -4 6 -11
9 -16 6 -4 -3 -10 -1 -12 4 -2 6 -13 4 -26 -3z"/>
<path d="M5485 4481 c-3 -5 -2 -16 1 -24 4 -11 -5 -17 -35 -22 -37 -6 -40 -9
-30 -26 5 -11 14 -17 20 -14 12 8 12 4 -6 -39 -15 -35 -12 -41 16 -38 4 1 6
-6 5 -16 -1 -23 -35 -31 -65 -16 -18 10 -30 10 -44 2 -16 -8 -23 -7 -31 4 -6
7 -19 12 -29 10 -10 -2 -25 5 -32 15 -13 17 -14 16 -15 -10 0 -19 4 -27 13
-24 17 6 87 -72 87 -97 0 -17 2 -18 10 -6 9 13 14 7 11 -12 0 -5 2 -8 7 -9 4
0 15 -2 25 -4 10 -2 16 2 15 8 -2 7 -1 12 2 13 3 0 15 6 26 12 17 9 25 8 39
-6 13 -12 30 -16 57 -14 42 5 46 9 21 28 -10 7 -14 16 -9 21 5 4 11 2 13 -4 3
-7 9 -13 14 -13 6 0 8 4 4 9 -7 12 29 33 41 23 5 -4 3 0 -4 9 -7 10 -22 15
-35 13 -12 -2 -16 -2 -9 2 6 3 10 10 6 15 -3 5 5 18 17 28 21 16 22 22 11 45
-9 20 -9 26 0 26 9 0 9 3 0 12 -7 7 -12 22 -12 35 0 12 -9 27 -20 33 -16 9
-20 8 -20 -6 0 -11 -5 -14 -16 -10 -9 3 -20 6 -25 6 -6 0 -7 5 -4 10 4 6 11 8
16 5 5 -4 9 -2 9 2 0 13 -39 34 -45 24z"/>
<path d="M7431 4057 c-6 -8 -8 -17 -4 -20 3 -4 -4 -7 -16 -7 -16 0 -21 -5 -18
-14 8 -21 -22 -29 -40 -11 -8 8 -19 12 -25 9 -7 -4 -4 -10 6 -16 10 -6 15 -17
11 -27 -3 -11 5 -29 20 -47 20 -23 25 -25 25 -11 0 10 5 15 10 12 6 -4 27 7
48 23 34 27 101 56 129 57 7 0 13 4 13 8 1 54 -1 61 -9 48 -8 -12 -16 -13 -43
-4 -19 5 -44 6 -56 2 -13 -5 -22 -4 -22 1 0 14 -16 12 -29 -3z"/>
</g>
</svg>
